# MagicaVoxel @ Ephtracy

# group
o 

# material
mtllib 3x3x3.mtl
usemtl palette

# normals
vn -1 0 0
vn 1 0 0
vn 0 0 1
vn 0 0 -1
vn 0 -1 0
vn 0 1 0

# texcoords
vt 0.404297 0.5
vt 0.681641 0.5
vt 0.705078 0.5
vt 0.841797 0.5

# verts
v -0.1 0 0.1
v -0.1 0 0
v -0.1 0 -0.2
v -0.1 0.1 0.1
v -0.1 0.1 0
v -0.1 0.1 -0.1
v -0.1 0.2 0.1
v -0.1 0.2 0
v -0.1 0.2 -0.1
v -0.1 0.3 0.1
v -0.1 0.3 0
v -0.1 0.3 -0.2
v 0.1 0 0
v 0.1 0 -0.1
v 0.1 0.1 0.1
v 0.1 0.1 0
v 0.1 0.1 -0.1
v 0.1 0.1 -0.2
v 0.1 0.2 0.1
v 0.1 0.2 0
v 0.1 0.2 -0.1
v 0.1 0.2 -0.2
v 0.1 0.3 0
v 0.1 0.3 -0.1
v 0 0 0
v 0 0 -0.1
v 0 0.1 0.1
v 0 0.1 0
v 0 0.1 -0.1
v 0 0.1 -0.2
v 0 0.2 0.1
v 0 0.2 0
v 0 0.2 -0.1
v 0 0.2 -0.2
v 0 0.3 0
v 0 0.3 -0.1
v 0.2 0 0.1
v 0.2 0 -0.2
v 0.2 0.1 0
v 0.2 0.1 -0.1
v 0.2 0.2 0.1
v 0.2 0.2 0
v 0.2 0.2 -0.1
v 0.2 0.3 0.1
v 0.2 0.3 0
v 0.2 0.3 -0.2
v -0.1 0 0.1
v -0.1 0.1 0.1
v -0.1 0.2 0.1
v -0.1 0.3 0.1
v 0 0 0.1
v 0 0.1 0.1
v 0 0.2 0.1
v 0.1 0 0.1
v 0.1 0.1 0.1
v 0.1 0.2 0.1
v 0.1 0.3 0.1
v 0.2 0 0.1
v 0.2 0.2 0.1
v 0.2 0.3 0.1
v -0.1 0.1 -0.1
v -0.1 0.2 -0.1
v 0 0 -0.1
v 0 0.1 -0.1
v 0 0.2 -0.1
v 0 0.3 -0.1
v 0.1 0 -0.1
v 0.1 0.1 -0.1
v 0.1 0.2 -0.1
v 0.1 0.3 -0.1
v 0.2 0.1 -0.1
v 0.2 0.2 -0.1
v -0.1 0.1 0
v -0.1 0.2 0
v 0 0 0
v 0 0.1 0
v 0 0.2 0
v 0 0.3 0
v 0.1 0 0
v 0.1 0.1 0
v 0.1 0.2 0
v 0.1 0.3 0
v 0.2 0.1 0
v 0.2 0.2 0
v -0.1 0 -0.2
v -0.1 0.3 -0.2
v 0 0 -0.2
v 0 0.1 -0.2
v 0 0.2 -0.2
v 0 0.3 -0.2
v 0.1 0 -0.2
v 0.1 0.1 -0.2
v 0.1 0.2 -0.2
v 0.1 0.3 -0.2
v 0.2 0 -0.2
v 0.2 0.3 -0.2
v -0.1 0 0.1
v 0 0 0.1
v 0.1 0 0.1
v 0.2 0 0.1
v -0.1 0 0
v 0 0 0
v 0.1 0 0
v 0 0 -0.1
v 0.1 0 -0.1
v -0.1 0 -0.2
v 0 0 -0.2
v 0.1 0 -0.2
v 0.2 0 -0.2
v 0 0.2 0.1
v 0.1 0.2 0.1
v -0.1 0.2 0
v 0 0.2 0
v 0.1 0.2 0
v 0.2 0.2 0
v -0.1 0.2 -0.1
v 0 0.2 -0.1
v 0.1 0.2 -0.1
v 0.2 0.2 -0.1
v 0 0.2 -0.2
v 0.1 0.2 -0.2
v 0 0.1 0.1
v 0.1 0.1 0.1
v -0.1 0.1 0
v 0 0.1 0
v 0.1 0.1 0
v 0.2 0.1 0
v -0.1 0.1 -0.1
v 0 0.1 -0.1
v 0.1 0.1 -0.1
v 0.2 0.1 -0.1
v 0 0.1 -0.2
v 0.1 0.1 -0.2
v -0.1 0.3 0.1
v 0.1 0.3 0.1
v 0.2 0.3 0.1
v -0.1 0.3 0
v 0 0.3 0
v 0.1 0.3 0
v 0.2 0.3 0
v 0 0.3 -0.1
v 0.1 0.3 -0.1
v -0.1 0.3 -0.2
v 0 0.3 -0.2
v 0.1 0.3 -0.2
v 0.2 0.3 -0.2

# faces
f 4/2/1 2/2/1 1/2/1
f 5/1/1 3/1/1 2/1/1
f 5/2/1 2/2/1 4/2/1
f 6/1/1 3/1/1 5/1/1
f 7/1/1 5/1/1 4/1/1
f 8/1/1 5/1/1 7/1/1
f 9/1/1 3/1/1 6/1/1
f 10/2/1 8/2/1 7/2/1
f 11/1/1 9/1/1 8/1/1
f 11/2/1 8/2/1 10/2/1
f 12/1/1 3/1/1 9/1/1
f 12/1/1 9/1/1 11/1/1
f 16/4/1 14/4/1 13/4/1
f 17/4/1 14/4/1 16/4/1
f 19/4/1 16/4/1 15/4/1
f 20/4/1 16/4/1 19/4/1
f 21/4/1 18/4/1 17/4/1
f 22/4/1 18/4/1 21/4/1
f 23/4/1 21/4/1 20/4/1
f 24/4/1 21/4/1 23/4/1
f 25/1/2 26/1/2 28/1/2
f 28/1/2 26/1/2 29/1/2
f 27/1/2 28/1/2 31/1/2
f 31/1/2 28/1/2 32/1/2
f 29/1/2 30/1/2 33/1/2
f 33/1/2 30/1/2 34/1/2
f 32/1/2 33/1/2 35/1/2
f 35/1/2 33/1/2 36/1/2
f 37/4/2 38/4/2 39/4/2
f 39/4/2 38/4/2 40/4/2
f 37/4/2 39/4/2 41/4/2
f 41/4/2 39/4/2 42/4/2
f 40/4/2 38/4/2 43/4/2
f 41/3/2 42/3/2 44/3/2
f 42/4/2 43/4/2 45/4/2
f 44/3/2 42/3/2 45/3/2
f 43/4/2 38/4/2 46/4/2
f 45/4/2 43/4/2 46/4/2
f 51/2/3 48/2/3 47/2/3
f 52/1/3 49/1/3 48/1/3
f 52/2/3 48/2/3 51/2/3
f 53/2/3 50/2/3 49/2/3
f 53/1/3 49/1/3 52/1/3
f 54/3/3 52/3/3 51/3/3
f 55/3/3 52/3/3 54/3/3
f 56/2/3 50/2/3 53/2/3
f 57/2/3 50/2/3 56/2/3
f 58/4/3 55/4/3 54/4/3
f 58/4/3 56/4/3 55/4/3
f 59/3/3 57/3/3 56/3/3
f 59/4/3 56/4/3 58/4/3
f 60/3/3 57/3/3 59/3/3
f 64/1/3 62/1/3 61/1/3
f 65/1/3 62/1/3 64/1/3
f 67/3/3 64/3/3 63/3/3
f 68/3/3 64/3/3 67/3/3
f 69/2/3 66/2/3 65/2/3
f 70/2/3 66/2/3 69/2/3
f 71/4/3 69/4/3 68/4/3
f 72/4/3 69/4/3 71/4/3
f 73/1/4 74/1/4 76/1/4
f 76/1/4 74/1/4 77/1/4
f 75/3/4 76/3/4 79/3/4
f 79/3/4 76/3/4 80/3/4
f 77/2/4 78/2/4 81/2/4
f 81/2/4 78/2/4 82/2/4
f 80/4/4 81/4/4 83/4/4
f 83/4/4 81/4/4 84/4/4
f 85/1/4 86/1/4 87/1/4
f 87/1/4 86/1/4 88/1/4
f 88/1/4 86/1/4 89/1/4
f 89/1/4 86/1/4 90/1/4
f 87/3/4 88/3/4 91/3/4
f 91/3/4 88/3/4 92/3/4
f 89/2/4 90/2/4 93/2/4
f 93/2/4 90/2/4 94/2/4
f 91/4/4 92/4/4 95/4/4
f 92/4/4 93/4/4 95/4/4
f 93/4/4 94/4/4 95/4/4
f 95/4/4 94/4/4 96/4/4
f 101/2/5 98/2/5 97/2/5
f 102/3/5 99/3/5 98/3/5
f 102/2/5 98/2/5 101/2/5
f 103/4/5 100/4/5 99/4/5
f 103/3/5 99/3/5 102/3/5
f 104/1/5 102/1/5 101/1/5
f 105/4/5 100/4/5 103/4/5
f 106/1/5 104/1/5 101/1/5
f 107/3/5 105/3/5 104/3/5
f 107/1/5 104/1/5 106/1/5
f 108/4/5 100/4/5 105/4/5
f 108/3/5 105/3/5 107/3/5
f 109/4/5 100/4/5 108/4/5
f 113/2/5 111/2/5 110/2/5
f 114/2/5 111/2/5 113/2/5
f 116/1/5 113/1/5 112/1/5
f 117/1/5 113/1/5 116/1/5
f 118/4/5 115/4/5 114/4/5
f 119/4/5 115/4/5 118/4/5
f 120/2/5 118/2/5 117/2/5
f 121/2/5 118/2/5 120/2/5
f 122/3/6 123/3/6 125/3/6
f 125/3/6 123/3/6 126/3/6
f 124/1/6 125/1/6 128/1/6
f 128/1/6 125/1/6 129/1/6
f 126/4/6 127/4/6 130/4/6
f 130/4/6 127/4/6 131/4/6
f 129/3/6 130/3/6 132/3/6
f 132/3/6 130/3/6 133/3/6
f 134/2/6 135/2/6 137/2/6
f 137/2/6 135/2/6 138/2/6
f 135/3/6 136/3/6 139/3/6
f 138/2/6 135/2/6 139/2/6
f 139/3/6 136/3/6 140/3/6
f 137/1/6 138/1/6 141/1/6
f 139/4/6 140/4/6 142/4/6
f 137/1/6 141/1/6 143/1/6
f 141/2/6 142/2/6 144/2/6
f 143/1/6 141/1/6 144/1/6
f 142/4/6 140/4/6 145/4/6
f 144/2/6 142/2/6 145/2/6
f 145/4/6 140/4/6 146/4/6
